<mxfile host="app.diagrams.net" modified="2020-09-29T09:17:25.756Z" agent="5.0 (Macintosh; Intel Mac OS X 10_13_6) AppleWebKit/537.36 (KHTML, like Gecko) Chrome/85.0.4183.102 Safari/537.36" etag="VE2f8TMilIIyqh1X-RUU" version="13.7.6" type="github">
  <diagram id="kq2GyaEMPCIRhKxA6xp8" name="第 1 页">
    <mxGraphModel dx="2139" dy="1043" grid="1" gridSize="10" guides="1" tooltips="1" connect="1" arrows="1" fold="1" page="1" pageScale="1" pageWidth="827" pageHeight="1169" math="0" shadow="0">
      <root>
        <mxCell id="0" />
        <mxCell id="1" parent="0" />
        <mxCell id="93Jl-xjXIZhZPAeYO3Qk-1" value="&lt;b&gt;高并发场景下分布式锁的并发性能优化&lt;/b&gt;" style="text;html=1;align=center;verticalAlign=middle;resizable=0;points=[];autosize=1;fontSize=21;fontColor=#EA6B66;" vertex="1" parent="1">
          <mxGeometry x="190" y="40" width="370" height="30" as="geometry" />
        </mxCell>
      </root>
    </mxGraphModel>
  </diagram>
</mxfile>
